<svg preserveAspectRatio="none" width="100%" height="100%" overflow="visible" style="display: block;" viewBox="0 0 97 47" fill="none" xmlns="http://www.w3.org/2000/svg">
<g id=" ">
<path id="Subtract" d="M23.3203 0.00100708C36.1994 0.00117286 46.6396 10.4416 46.6396 23.3203C46.6396 36.1991 36.1994 46.6395 23.3203 46.6397C10.4411 46.6397 0 36.1992 0 23.3203C3.36464e-05 10.4415 10.4411 0.00100708 23.3203 0.00100708ZM24.1221 8.67679C20.1849 8.67682 17.1922 9.55695 15.1436 11.3174C13.1269 13.0459 12.1182 15.3189 12.1182 18.1358C12.1182 19.7679 12.4223 21.1921 13.0303 22.4082C13.6385 23.6246 14.5195 24.7452 15.6719 25.7696C16.5207 26.524 17.4911 27.2868 18.583 28.0586L11.2539 38.0137H17.4004L22.6797 30.7139L22.6816 30.7149L22.6797 30.7129L25.5625 26.7295L22.7773 24.8575C21.6573 24.0894 20.7293 23.3852 19.9932 22.7451C19.2569 22.105 18.6966 21.4001 18.3125 20.6319C17.9285 19.8638 17.7364 18.9358 17.7363 17.8477C17.7363 16.4072 18.2808 15.2539 19.3691 14.3897C20.4574 13.4937 22.0577 13.046 24.1699 13.0459H27.0996V38.0137H32.8135V8.67679H24.1221Z" fill="var(--fill-0, #FFB3D6)"/>
<path id="Subtract_2" d="M66.0832 36.9277H66.0842V36.9287L74.9065 38.4824L83.1877 28.0752L80.4182 39.7861L80.4202 39.7852V39.7871L88.1467 38.3154V38.3125L91.7112 37.6338C87.4421 43.1147 80.7749 46.6405 73.2913 46.6406C67.2607 46.6406 61.7594 44.3514 57.6165 40.5947L69.9475 21.3926L66.0832 36.9277ZM73.2913 0C86.1555 0.000198914 96.6105 10.4969 96.6106 23.3613C96.6106 25.5577 96.3051 27.6824 95.7356 29.6963L95.717 29.666L89.8928 30.998L92.8342 18.6748L85.3206 13.6494H85.3186L76.2834 25.0078L80.011 10.0566L69.6799 3.15527H69.679L51.4651 31.5732C50.5002 29.0199 49.9709 26.2526 49.9709 23.3613C49.971 10.4968 60.4269 0 73.2913 0Z" fill="var(--fill-0, #FFB3D6)"/>
</g>
</svg>
