<svg width="90" height="28" viewBox="0 0 90 28" fill="none" xmlns="http://www.w3.org/2000/svg">
<path d="M9.70508 21.792L15.333 22.4678L20.0059 16.751L18.6455 22.4707L18.707 22.4521L18.6592 22.4912L25.7646 21.6934C23.261 25.4921 18.9582 28 14.0684 28C10.3 28 6.88001 26.5104 4.36328 24.0889L11.9219 12.5039L9.70508 21.792ZM14.0684 0C21.8003 0 28.0684 6.26801 28.0684 14C28.0684 15.1725 27.9229 16.311 27.6514 17.3994L24.2832 18.0342L25.8984 10.9912L21.0898 8.20312L15.9834 14.5391L17.918 6.3877L11.1045 2.45215L0.785156 18.4336C0.32032 17.0403 0.0683594 15.5496 0.0683594 14C0.0683594 6.26801 6.33637 0 14.0684 0Z" fill="white"/>
<g clip-path="url(#clip0_4334_41040)">
<path d="M85.453 23.1293C85.431 23.0193 85.409 22.8763 85.387 22.7003C85.3723 22.517 85.3577 22.3593 85.343 22.2273C85.2843 22.352 85.2073 22.473 85.112 22.5903C85.024 22.7076 84.9103 22.8176 84.771 22.9203C84.6317 23.0156 84.4667 23.0926 84.276 23.1513C84.0927 23.21 83.8763 23.2393 83.627 23.2393C83.385 23.2393 83.154 23.2063 82.934 23.1403C82.7213 23.0743 82.5307 22.9716 82.362 22.8323C82.2007 22.693 82.0723 22.5206 81.977 22.3153C81.8817 22.11 81.834 21.868 81.834 21.5893C81.834 20.9806 82.0723 20.5113 82.549 20.1813C83.0257 19.8513 83.704 19.6863 84.584 19.6863H85.288V19.4333C85.288 19.0813 85.1963 18.843 85.013 18.7183C84.837 18.5863 84.551 18.5203 84.155 18.5203C83.759 18.5203 83.396 18.5716 83.066 18.6743C82.736 18.777 82.4463 18.8906 82.197 19.0153V17.8053C82.4463 17.6806 82.7653 17.567 83.154 17.4643C83.5427 17.3616 83.968 17.3103 84.43 17.3103C85.178 17.3103 85.761 17.468 86.179 17.7833C86.6043 18.0986 86.817 18.601 86.817 19.2903V22.2053C86.817 22.2713 86.817 22.3483 86.817 22.4363C86.8243 22.517 86.828 22.6013 86.828 22.6893C86.8353 22.7773 86.8426 22.8616 86.85 22.9423C86.8573 23.0156 86.8647 23.078 86.872 23.1293H85.453ZM84.089 22.1503C84.3383 22.1503 84.54 22.099 84.694 21.9963C84.848 21.8863 84.969 21.7616 85.057 21.6223C85.145 21.483 85.2037 21.3473 85.233 21.2153C85.2697 21.076 85.288 20.977 85.288 20.9183V20.5773H84.639C84.1843 20.5773 83.8507 20.6543 83.638 20.8083C83.4327 20.955 83.33 21.1566 83.33 21.4133C83.33 21.648 83.396 21.8313 83.528 21.9633C83.6673 22.088 83.8543 22.1503 84.089 22.1503Z" fill="white"/>
<path d="M75.2208 21.9194C75.3602 21.7654 75.4738 21.5637 75.5618 21.3144C75.6572 21.0577 75.7305 20.7461 75.7818 20.3794C75.8405 20.0127 75.8845 19.5874 75.9138 19.1034C75.9432 18.6121 75.9688 18.0511 75.9908 17.4204H80.3798V21.9194H81.2268V24.7574H79.9068L79.8188 23.1294H76.1228L76.0348 24.7574H74.7148V21.9194H75.2208ZM78.8508 21.9194V18.6194H77.2778C77.2485 19.4041 77.1935 20.0641 77.1128 20.5994C77.0395 21.1274 76.9222 21.5674 76.7608 21.9194H78.8508Z" fill="white"/>
<path d="M71.4582 23.2393C71.0475 23.2393 70.6662 23.177 70.3142 23.0523C69.9695 22.9203 69.6652 22.7296 69.4012 22.4803C69.1445 22.2236 68.9428 21.912 68.7962 21.5453C68.6495 21.1713 68.5762 20.746 68.5762 20.2693C68.5762 19.7926 68.6495 19.371 68.7962 19.0043C68.9428 18.6303 69.1445 18.3186 69.4012 18.0693C69.6652 17.82 69.9695 17.633 70.3142 17.5083C70.6662 17.3763 71.0475 17.3103 71.4582 17.3103C71.8688 17.3103 72.2502 17.3763 72.6022 17.5083C72.9615 17.633 73.2695 17.82 73.5262 18.0693C73.7902 18.3186 73.9955 18.6303 74.1422 19.0043C74.2962 19.371 74.3732 19.7926 74.3732 20.2693C74.3732 20.746 74.2962 21.1713 74.1422 21.5453C73.9955 21.912 73.7902 22.2236 73.5262 22.4803C73.2695 22.7296 72.9615 22.9203 72.6022 23.0523C72.2502 23.177 71.8688 23.2393 71.4582 23.2393ZM71.4582 22.0183C71.8542 22.0183 72.1768 21.8753 72.4262 21.5893C72.6755 21.3033 72.8002 20.8633 72.8002 20.2693C72.8002 19.6826 72.6755 19.2463 72.4262 18.9603C72.1768 18.6743 71.8542 18.5313 71.4582 18.5313C71.0842 18.5313 70.7688 18.6743 70.5122 18.9603C70.2628 19.2463 70.1382 19.6826 70.1382 20.2693C70.1382 20.8633 70.2628 21.3033 70.5122 21.5893C70.7688 21.8753 71.0842 22.0183 71.4582 22.0183Z" fill="white"/>
<path d="M64.2109 17.4204H68.0719V18.6194H65.7289V23.1294H64.2109V17.4204Z" fill="white"/>
<path d="M60.6767 20.4564C60.6767 20.8671 60.6034 21.2448 60.4567 21.5894C60.31 21.9268 60.101 22.2201 59.8297 22.4694C59.5584 22.7114 59.2357 22.9021 58.8617 23.0414C58.4877 23.1734 58.0734 23.2394 57.6187 23.2394C57.0907 23.2394 56.6544 23.1808 56.3097 23.0634C55.9724 22.9461 55.679 22.8141 55.4297 22.6674V21.3144C55.6864 21.4831 55.9834 21.6444 56.3207 21.7984C56.6654 21.9451 57.065 22.0184 57.5197 22.0184C58.033 22.0184 58.4217 21.8754 58.6857 21.5894C58.957 21.3034 59.0927 20.9478 59.0927 20.5224C59.0927 20.0971 58.9864 19.7598 58.7737 19.5104C58.5684 19.2611 58.2457 19.1364 57.8057 19.1364C57.5344 19.1364 57.3107 19.1804 57.1347 19.2684C56.9587 19.3564 56.8267 19.4554 56.7387 19.5654H55.5837V15.2424H60.3027V16.5184H56.9367V18.3114C57.0614 18.2161 57.2264 18.1318 57.4317 18.0584C57.637 17.9778 57.9047 17.9374 58.2347 17.9374C58.99 17.9374 59.584 18.1611 60.0167 18.6084C60.4567 19.0484 60.6767 19.6644 60.6767 20.4564Z" fill="white"/>
<path d="M54.4894 23.1293H49.2754V21.6773C49.9427 21.1786 50.5074 20.7386 50.9694 20.3573C51.4387 19.976 51.8164 19.6276 52.1024 19.3123C52.3884 18.997 52.5937 18.7036 52.7184 18.4323C52.8504 18.1536 52.9164 17.864 52.9164 17.5633C52.9164 17.1966 52.8064 16.9106 52.5864 16.7053C52.3737 16.4926 52.0694 16.3863 51.6734 16.3863C51.2774 16.3863 50.8961 16.4706 50.5294 16.6393C50.1627 16.808 49.8181 17.0316 49.4954 17.3103V15.9243C49.8034 15.6896 50.1444 15.5026 50.5184 15.3633C50.8924 15.2166 51.3471 15.1433 51.8824 15.1433C52.2784 15.1433 52.6377 15.1983 52.9604 15.3083C53.2831 15.411 53.5581 15.565 53.7854 15.7703C54.0201 15.9756 54.1997 16.2286 54.3244 16.5293C54.4564 16.8226 54.5224 17.1563 54.5224 17.5303C54.5224 17.9116 54.4454 18.271 54.2914 18.6083C54.1374 18.9456 53.9064 19.283 53.5984 19.6203C53.2977 19.9576 52.9201 20.3096 52.4654 20.6763C52.0181 21.0356 51.4937 21.4316 50.8924 21.8643H54.4894V23.1293Z" fill="white"/>
<path d="M45.3671 23.2393C44.9051 23.2393 44.4725 23.155 44.0691 22.9863C43.6731 22.8103 43.3248 22.5536 43.0241 22.2163C42.7308 21.8716 42.4998 21.4463 42.3311 20.9403C42.1625 20.4343 42.0781 19.8476 42.0781 19.1803C42.0781 18.513 42.1625 17.93 42.3311 17.4313C42.4998 16.9253 42.7308 16.5036 43.0241 16.1663C43.3248 15.829 43.6731 15.576 44.0691 15.4073C44.4725 15.2313 44.9051 15.1433 45.3671 15.1433C45.8291 15.1433 46.2618 15.2276 46.6651 15.3963C47.0685 15.565 47.4168 15.818 47.7101 16.1553C48.0035 16.4926 48.2345 16.9143 48.4031 17.4203C48.5718 17.919 48.6561 18.4983 48.6561 19.1583C48.6561 19.8183 48.5718 20.4013 48.4031 20.9073C48.2345 21.4133 48.0035 21.8423 47.7101 22.1943C47.4168 22.539 47.0685 22.7993 46.6651 22.9753C46.2618 23.1513 45.8291 23.2393 45.3671 23.2393ZM45.3561 22.0183C45.6055 22.0183 45.8365 21.967 46.0491 21.8643C46.2618 21.7616 46.4451 21.6003 46.5991 21.3803C46.7531 21.153 46.8741 20.8596 46.9621 20.5003C47.0501 20.141 47.0941 19.7046 47.0941 19.1913C47.0941 18.678 47.0501 18.2416 46.9621 17.8823C46.8741 17.5156 46.7531 17.2223 46.5991 17.0023C46.4451 16.775 46.2618 16.61 46.0491 16.5073C45.8365 16.4046 45.6091 16.3533 45.3671 16.3533C45.1251 16.3533 44.8978 16.4046 44.6851 16.5073C44.4798 16.61 44.3001 16.775 44.1461 17.0023C43.9921 17.2223 43.8711 17.5156 43.7831 17.8823C43.6951 18.2416 43.6511 18.678 43.6511 19.1913C43.6511 19.7046 43.6951 20.141 43.7831 20.5003C43.8711 20.8596 43.9921 21.153 44.1461 21.3803C44.3001 21.6003 44.4798 21.7616 44.6851 21.8643C44.8905 21.967 45.1141 22.0183 45.3561 22.0183Z" fill="white"/>
<path d="M41.212 23.1293H35.998V21.6773C36.6654 21.1786 37.23 20.7386 37.692 20.3573C38.1614 19.976 38.539 19.6276 38.825 19.3123C39.111 18.997 39.3164 18.7036 39.441 18.4323C39.573 18.1536 39.639 17.864 39.639 17.5633C39.639 17.1966 39.529 16.9106 39.309 16.7053C39.0964 16.4926 38.792 16.3863 38.396 16.3863C38 16.3863 37.6187 16.4706 37.252 16.6393C36.8854 16.808 36.5407 17.0316 36.218 17.3103V15.9243C36.526 15.6896 36.867 15.5026 37.241 15.3633C37.615 15.2166 38.0697 15.1433 38.605 15.1433C39.001 15.1433 39.3604 15.1983 39.683 15.3083C40.0057 15.411 40.2807 15.565 40.508 15.7703C40.7427 15.9756 40.9224 16.2286 41.047 16.5293C41.179 16.8226 41.245 17.1563 41.245 17.5303C41.245 17.9116 41.168 18.271 41.014 18.6083C40.86 18.9456 40.629 19.283 40.321 19.6203C40.0204 19.9576 39.6427 20.3096 39.188 20.6763C38.7407 21.0356 38.2164 21.4316 37.615 21.8643H41.212V23.1293Z" fill="white"/>
<path d="M85.9562 9.03941L88.2662 5.42041H89.7402V11.1294H88.2332V7.52141L85.9452 11.1294H84.4492V5.42041H85.9562V9.03941Z" fill="white"/>
<path d="M79.6484 5.42041H83.5094V6.61941H81.1664V11.1294H79.6484V5.42041Z" fill="white"/>
<path d="M75.7336 11.2393C75.3229 11.2393 74.9416 11.177 74.5896 11.0523C74.2449 10.9203 73.9406 10.7296 73.6766 10.4803C73.4199 10.2236 73.2182 9.91197 73.0716 9.5453C72.9249 9.1713 72.8516 8.74597 72.8516 8.2693C72.8516 7.79264 72.9249 7.37097 73.0716 7.0043C73.2182 6.6303 73.4199 6.31864 73.6766 6.0693C73.9406 5.81997 74.2449 5.63297 74.5896 5.5083C74.9416 5.3763 75.3229 5.3103 75.7336 5.3103C76.1442 5.3103 76.5256 5.3763 76.8776 5.5083C77.2369 5.63297 77.5449 5.81997 77.8016 6.0693C78.0656 6.31864 78.2709 6.6303 78.4176 7.0043C78.5716 7.37097 78.6486 7.79264 78.6486 8.2693C78.6486 8.74597 78.5716 9.1713 78.4176 9.5453C78.2709 9.91197 78.0656 10.2236 77.8016 10.4803C77.5449 10.7296 77.2369 10.9203 76.8776 11.0523C76.5256 11.177 76.1442 11.2393 75.7336 11.2393ZM75.7336 10.0183C76.1296 10.0183 76.4522 9.8753 76.7016 9.5893C76.9509 9.3033 77.0756 8.8633 77.0756 8.2693C77.0756 7.68264 76.9509 7.2463 76.7016 6.9603C76.4522 6.6743 76.1296 6.5313 75.7336 6.5313C75.3596 6.5313 75.0442 6.6743 74.7876 6.9603C74.5382 7.2463 74.4136 7.68264 74.4136 8.2693C74.4136 8.8633 74.5382 9.3033 74.7876 9.5893C75.0442 9.8753 75.3596 10.0183 75.7336 10.0183Z" fill="white"/>
<path d="M70.7225 6.61941V11.1294H69.1935V6.61941H67.5215V5.42041H72.4165V6.61941H70.7225Z" fill="white"/>
<path d="M62.8722 9.03941L65.1822 5.42041H66.6562V11.1294H65.1492V7.52141L62.8612 11.1294H61.3652V5.42041H62.8722V9.03941Z" fill="white"/>
<path d="M53.8488 9.03941L56.1588 5.42041H57.6328V11.1294H56.1258V7.52141L53.8378 11.1294H52.3418V5.42041H53.8488V9.03941Z" fill="white"/>
<path d="M48.4269 11.2393C48.0163 11.2393 47.6349 11.177 47.2829 11.0523C46.9383 10.9203 46.6339 10.7296 46.3699 10.4803C46.1133 10.2236 45.9116 9.91197 45.7649 9.5453C45.6183 9.1713 45.5449 8.74597 45.5449 8.2693C45.5449 7.79264 45.6183 7.37097 45.7649 7.0043C45.9116 6.6303 46.1133 6.31864 46.3699 6.0693C46.6339 5.81997 46.9383 5.63297 47.2829 5.5083C47.6349 5.3763 48.0163 5.3103 48.4269 5.3103C48.8376 5.3103 49.2189 5.3763 49.5709 5.5083C49.9303 5.63297 50.2383 5.81997 50.4949 6.0693C50.7589 6.31864 50.9643 6.6303 51.1109 7.0043C51.2649 7.37097 51.3419 7.79264 51.3419 8.2693C51.3419 8.74597 51.2649 9.1713 51.1109 9.5453C50.9643 9.91197 50.7589 10.2236 50.4949 10.4803C50.2383 10.7296 49.9303 10.9203 49.5709 11.0523C49.2189 11.177 48.8376 11.2393 48.4269 11.2393ZM48.4269 10.0183C48.8229 10.0183 49.1456 9.8753 49.3949 9.5893C49.6443 9.3033 49.7689 8.8633 49.7689 8.2693C49.7689 7.68264 49.6443 7.2463 49.3949 6.9603C49.1456 6.6743 48.8229 6.5313 48.4269 6.5313C48.0529 6.5313 47.7376 6.6743 47.4809 6.9603C47.2316 7.2463 47.1069 7.68264 47.1069 8.2693C47.1069 8.8633 47.2316 9.3033 47.4809 9.5893C47.7376 9.8753 48.0529 10.0183 48.4269 10.0183Z" fill="white"/>
<path d="M42.8511 5.57443L40.9591 9.91943H39.5621L37.7251 5.50843V11.1294H36.3281V3.24243H38.3851L40.3761 8.23643L42.5431 3.24243H44.4241V11.1294H42.8511V5.57443Z" fill="white"/>
</g>
<defs>
<clipPath id="clip0_4334_41040">
<rect width="53.7441" height="21.5147" fill="white" transform="translate(36 3.24268)"/>
</clipPath>
</defs>
</svg>
