<svg width="252" height="28" viewBox="0 0 252 28" fill="none" xmlns="http://www.w3.org/2000/svg" style="display: block;">
<path d="M63.3984 22.6365L72.116 5.2832H78.7551L80.1118 15.8485L86.8376 5.2832H93.4191V22.6365H86.9819V13.3208L81.0067 22.6365H74.5696L73.3283 13.2356L68.5943 22.6365H63.3984ZM113.192 19.1999C113.192 19.7869 113.202 20.3644 113.221 20.9324C113.24 21.5004 113.279 22.059 113.337 22.6081H107.361C107.246 22.3998 107.13 22.1158 107.015 21.7561C106.899 21.3774 106.822 20.9797 106.784 20.5632C106.168 21.2827 105.389 21.8791 104.446 22.3525C103.522 22.8069 102.204 23.0341 100.491 23.0341C98.7593 23.0341 97.3737 22.6365 96.3345 21.8413C95.3146 21.046 94.8046 19.9857 94.8046 18.6603C94.8046 17.4296 95.1606 16.4828 95.8727 15.8201C96.6039 15.1385 97.7393 14.6652 99.2788 14.4001C100.818 14.1161 102.791 13.9741 105.196 13.9741H106.697V13.6616C106.697 13.0557 106.438 12.5918 105.918 12.27C105.398 11.9481 104.427 11.7871 103.003 11.7871C101.598 11.7871 100.289 11.967 99.0768 12.3268C97.8837 12.6676 96.9118 13.0084 96.1613 13.3492V9.54342C97.0081 9.24047 98.1435 8.93752 99.5675 8.63457C101.011 8.31269 102.656 8.15175 104.504 8.15175C106.37 8.15175 107.948 8.32216 109.238 8.66298C110.527 8.98486 111.508 9.54342 112.182 10.3387C112.855 11.115 113.192 12.1942 113.192 13.5764V19.1999ZM115.155 8.57777H121.13L121.477 10.9919C122.208 10.0452 123.084 9.35408 124.104 8.91859C125.124 8.4831 126.297 8.26536 127.625 8.26536C129.126 8.26536 130.473 8.53044 131.666 9.0606C132.86 9.59076 133.803 10.3955 134.495 11.4747C135.188 12.554 135.535 13.9172 135.535 15.5645C135.535 17.2118 135.188 18.5846 134.495 19.6827C133.822 20.762 132.879 21.5762 131.666 22.1253C130.454 22.6744 129.069 22.9489 127.51 22.9489C126.355 22.9489 125.268 22.7501 124.248 22.3525C123.247 21.9359 122.381 21.2827 121.65 20.3928V26.3003H115.155V8.57777ZM154.355 15.5645C154.355 14.1634 154.74 12.9137 155.51 11.8155C156.299 10.7173 157.415 9.85584 158.858 9.23101C160.321 8.58724 162.043 8.26536 164.025 8.26536C166.084 8.26536 167.807 8.61564 169.192 9.31621C170.597 10.0168 171.579 11.0108 172.137 12.2984C172.714 13.5859 172.791 15.1101 172.368 16.871H160.965C161.196 17.6852 161.706 18.3005 162.495 18.7171C163.304 19.1147 164.497 19.3135 166.075 19.3135C167.172 19.3135 168.192 19.2189 169.135 19.0295C170.077 18.8212 170.953 18.5846 171.761 18.3195V21.6992C170.934 22.0779 170.01 22.3809 168.99 22.6081C167.99 22.8353 166.671 22.9489 165.036 22.9489C161.437 22.9489 158.752 22.2957 156.982 20.9892C155.231 19.6638 154.355 17.8556 154.355 15.5645ZM172.916 8.57777H189.398V12.2132H184.26V22.6081H177.765V12.2132H172.916V8.57777ZM136.776 8.57777H143.271V14.9397L149.419 8.57777H155.019L149.304 14.4285L156.203 22.6081H148.351L143.271 16.4166V22.6081H136.776V8.57777ZM164.054 11.4463C163.169 11.4463 162.466 11.7019 161.947 12.2132C161.427 12.7055 161.091 13.3397 160.937 14.1161H166.652C166.633 13.3397 166.421 12.7055 166.017 12.2132C165.613 11.7019 164.959 11.4463 164.054 11.4463ZM128.895 15.5645C128.895 14.4285 128.578 13.5291 127.943 12.8664C127.327 12.1848 126.442 11.8439 125.287 11.8439C124.229 11.8439 123.343 12.1658 122.631 12.8096C121.919 13.4344 121.563 14.3527 121.563 15.5645C121.563 16.7763 121.91 17.7136 122.603 18.3763C123.315 19.02 124.209 19.3419 125.287 19.3419C126.48 19.3419 127.375 19.0011 127.972 18.3195C128.587 17.6378 128.895 16.7195 128.895 15.5645ZM106.697 16.5586H105.225C103.82 16.5586 102.81 16.6722 102.194 16.8994C101.598 17.1266 101.299 17.5621 101.299 18.2059C101.299 18.755 101.492 19.162 101.877 19.4271C102.281 19.6733 102.762 19.7963 103.32 19.7963C104.167 19.7963 104.86 19.6449 105.398 19.3419C105.957 19.02 106.39 18.6508 106.697 18.2343V16.5586Z" fill="white"/>
<g clip-path="url(#clip0_4323_36439)">
<path d="M27.7249 13.8925C27.7249 6.23283 21.5104 0.00390625 13.8363 0.00390625C6.16213 0.00390625 -0.0234375 6.20393 -0.0234375 13.8925C-0.0234375 21.5378 6.17658 27.7523 13.8363 27.7523C21.496 27.7523 27.7249 21.5378 27.7249 13.8925ZM13.8363 25.3965C7.564 25.3965 2.50571 20.3238 2.50571 13.8781C2.50571 7.44682 7.564 2.35963 13.8363 2.35963C20.1519 2.35963 25.1669 7.46127 25.1669 13.8781C25.1958 20.3382 20.1519 25.3965 13.8363 25.3965Z" fill="white"/>
<path d="M15.659 8.20682H14.3914C12.2183 8.20682 11.1318 9.29335 11.1318 10.9231C11.1318 12.734 11.8561 13.6395 13.4859 14.726L14.7536 15.6315L11.1318 21.2452H8.23438L11.6751 16.1747C9.68308 14.726 8.59655 13.4584 8.59655 11.1042C8.59655 8.20682 10.5885 6.21484 14.3914 6.21484H18.1943V21.2452H15.659V8.20682Z" fill="white"/>
<path fill-rule="evenodd" clip-rule="evenodd" d="M55.3416 21.4818C52.8621 25.2578 48.5896 27.751 43.7348 27.751C40.0004 27.751 36.6105 26.2758 34.1163 23.8761L41.6082 12.3925L39.41 21.5985L44.988 22.2681L49.6204 16.6016L48.2714 22.2707L48.2811 22.2677L48.2717 22.2755L55.3416 21.4818ZM57.2026 17.2281C57.469 16.1544 57.6104 15.0315 57.6104 13.8755C57.6104 6.21227 51.3981 0 43.7348 0C36.0717 0 29.8594 6.21227 29.8594 13.8755C29.8594 15.4117 30.109 16.8897 30.57 18.271L40.7969 2.43035L47.5504 6.33081L45.6336 14.4105L50.6941 8.13049L55.4599 10.8935L53.8629 17.858L57.2026 17.2281Z" fill="white"/>
</g>
<path d="M247.455 23.1295C247.433 23.0195 247.411 22.8765 247.389 22.7005C247.374 22.5172 247.36 22.3595 247.345 22.2275C247.286 22.3522 247.209 22.4732 247.114 22.5905C247.026 22.7079 246.912 22.8179 246.773 22.9205C246.634 23.0159 246.469 23.0929 246.278 23.1515C246.095 23.2102 245.878 23.2395 245.629 23.2395C245.387 23.2395 245.156 23.2065 244.936 23.1405C244.723 23.0745 244.533 22.9719 244.364 22.8325C244.203 22.6932 244.074 22.5209 243.979 22.3155C243.884 22.1102 243.836 21.8682 243.836 21.5895C243.836 20.9809 244.074 20.5115 244.551 20.1815C245.028 19.8515 245.706 19.6865 246.586 19.6865H247.29V19.4335C247.29 19.0815 247.198 18.8432 247.015 18.7185C246.839 18.5865 246.553 18.5205 246.157 18.5205C245.761 18.5205 245.398 18.5719 245.068 18.6745C244.738 18.7772 244.448 18.8909 244.199 19.0155V17.8055C244.448 17.6809 244.767 17.5672 245.156 17.4645C245.545 17.3619 245.97 17.3105 246.432 17.3105C247.18 17.3105 247.763 17.4682 248.181 17.7835C248.606 18.0989 248.819 18.6012 248.819 19.2905V22.2055C248.819 22.2715 248.819 22.3485 248.819 22.4365C248.826 22.5172 248.83 22.6015 248.83 22.6895C248.837 22.7775 248.845 22.8619 248.852 22.9425C248.859 23.0159 248.867 23.0782 248.874 23.1295H247.455ZM246.091 22.1505C246.34 22.1505 246.542 22.0992 246.696 21.9965C246.85 21.8865 246.971 21.7619 247.059 21.6225C247.147 21.4832 247.206 21.3475 247.235 21.2155C247.272 21.0762 247.29 20.9772 247.29 20.9185V20.5775H246.641C246.186 20.5775 245.853 20.6545 245.64 20.8085C245.435 20.9552 245.332 21.1569 245.332 21.4135C245.332 21.6482 245.398 21.8315 245.53 21.9635C245.669 22.0882 245.856 22.1505 246.091 22.1505Z" fill="white"/>
<path d="M237.225 21.9189C237.364 21.7649 237.478 21.5633 237.566 21.3139C237.661 21.0573 237.734 20.7456 237.786 20.3789C237.844 20.0123 237.888 19.5869 237.918 19.1029C237.947 18.6116 237.973 18.0506 237.995 17.4199H242.384V21.9189H243.231V24.7569H241.911L241.823 23.1289H238.127L238.039 24.7569H236.719V21.9189H237.225ZM240.855 21.9189V18.6189H239.282C239.252 19.4036 239.197 20.0636 239.117 20.5989C239.043 21.1269 238.926 21.5669 238.765 21.9189H240.855Z" fill="white"/>
<path d="M233.46 23.2395C233.049 23.2395 232.668 23.1772 232.316 23.0525C231.971 22.9205 231.667 22.7299 231.403 22.4805C231.146 22.2239 230.945 21.9122 230.798 21.5455C230.651 21.1715 230.578 20.7462 230.578 20.2695C230.578 19.7929 230.651 19.3712 230.798 19.0045C230.945 18.6305 231.146 18.3189 231.403 18.0695C231.667 17.8202 231.971 17.6332 232.316 17.5085C232.668 17.3765 233.049 17.3105 233.46 17.3105C233.871 17.3105 234.252 17.3765 234.604 17.5085C234.963 17.6332 235.271 17.8202 235.528 18.0695C235.792 18.3189 235.997 18.6305 236.144 19.0045C236.298 19.3712 236.375 19.7929 236.375 20.2695C236.375 20.7462 236.298 21.1715 236.144 21.5455C235.997 21.9122 235.792 22.2239 235.528 22.4805C235.271 22.7299 234.963 22.9205 234.604 23.0525C234.252 23.1772 233.871 23.2395 233.46 23.2395ZM233.46 22.0185C233.856 22.0185 234.179 21.8755 234.428 21.5895C234.677 21.3035 234.802 20.8635 234.802 20.2695C234.802 19.6829 234.677 19.2465 234.428 18.9605C234.179 18.6745 233.856 18.5315 233.46 18.5315C233.086 18.5315 232.771 18.6745 232.514 18.9605C232.265 19.2465 232.14 19.6829 232.14 20.2695C232.14 20.8635 232.265 21.3035 232.514 21.5895C232.771 21.8755 233.086 22.0185 233.46 22.0185Z" fill="white"/>
<path d="M226.211 17.4199H230.072V18.6189H227.729V23.1289H226.211V17.4199Z" fill="white"/>
<path d="M222.677 20.4562C222.677 20.8669 222.603 21.2445 222.457 21.5892C222.31 21.9265 222.101 22.2199 221.83 22.4692C221.558 22.7112 221.236 22.9019 220.862 23.0412C220.488 23.1732 220.073 23.2392 219.619 23.2392C219.091 23.2392 218.654 23.1805 218.31 23.0632C217.972 22.9459 217.679 22.8139 217.43 22.6672V21.3142C217.686 21.4829 217.983 21.6442 218.321 21.7982C218.665 21.9449 219.065 22.0182 219.52 22.0182C220.033 22.0182 220.422 21.8752 220.686 21.5892C220.957 21.3032 221.093 20.9475 221.093 20.5222C221.093 20.0969 220.986 19.7595 220.774 19.5102C220.568 19.2609 220.246 19.1362 219.806 19.1362C219.534 19.1362 219.311 19.1802 219.135 19.2682C218.959 19.3562 218.827 19.4552 218.739 19.5652H217.584V15.2422H222.303V16.5182H218.937V18.3112C219.061 18.2159 219.226 18.1315 219.432 18.0582C219.637 17.9775 219.905 17.9372 220.235 17.9372C220.99 17.9372 221.584 18.1609 222.017 18.6082C222.457 19.0482 222.677 19.6642 222.677 20.4562Z" fill="white"/>
<path d="M216.487 23.1286H211.273V21.6766C211.941 21.1779 212.505 20.7379 212.967 20.3566C213.437 19.9752 213.814 19.6269 214.1 19.3116C214.386 18.9962 214.592 18.7029 214.716 18.4316C214.848 18.1529 214.914 17.8632 214.914 17.5626C214.914 17.1959 214.804 16.9099 214.584 16.7046C214.372 16.4919 214.067 16.3856 213.671 16.3856C213.275 16.3856 212.894 16.4699 212.527 16.6386C212.161 16.8072 211.816 17.0309 211.493 17.3096V15.9236C211.801 15.6889 212.142 15.5019 212.516 15.3626C212.89 15.2159 213.345 15.1426 213.88 15.1426C214.276 15.1426 214.636 15.1976 214.958 15.3076C215.281 15.4102 215.556 15.5642 215.783 15.7696C216.018 15.9749 216.198 16.2279 216.322 16.5286C216.454 16.8219 216.52 17.1556 216.52 17.5296C216.52 17.9109 216.443 18.2702 216.289 18.6076C216.135 18.9449 215.904 19.2822 215.596 19.6196C215.296 19.9569 214.918 20.3089 214.463 20.6756C214.016 21.0349 213.492 21.4309 212.89 21.8636H216.487V23.1286Z" fill="white"/>
<path d="M207.367 23.2386C206.905 23.2386 206.472 23.1542 206.069 22.9856C205.673 22.8096 205.325 22.5529 205.024 22.2156C204.731 21.8709 204.5 21.4456 204.331 20.9396C204.162 20.4336 204.078 19.8469 204.078 19.1796C204.078 18.5122 204.162 17.9292 204.331 17.4306C204.5 16.9246 204.731 16.5029 205.024 16.1656C205.325 15.8282 205.673 15.5752 206.069 15.4066C206.472 15.2306 206.905 15.1426 207.367 15.1426C207.829 15.1426 208.262 15.2269 208.665 15.3956C209.068 15.5642 209.417 15.8172 209.71 16.1546C210.003 16.4919 210.234 16.9136 210.403 17.4196C210.572 17.9182 210.656 18.4976 210.656 19.1576C210.656 19.8176 210.572 20.4006 210.403 20.9066C210.234 21.4126 210.003 21.8416 209.71 22.1936C209.417 22.5382 209.068 22.7986 208.665 22.9746C208.262 23.1506 207.829 23.2386 207.367 23.2386ZM207.356 22.0176C207.605 22.0176 207.836 21.9662 208.049 21.8636C208.262 21.7609 208.445 21.5996 208.599 21.3796C208.753 21.1522 208.874 20.8589 208.962 20.4996C209.05 20.1402 209.094 19.7039 209.094 19.1906C209.094 18.6772 209.05 18.2409 208.962 17.8816C208.874 17.5149 208.753 17.2216 208.599 17.0016C208.445 16.7742 208.262 16.6092 208.049 16.5066C207.836 16.4039 207.609 16.3526 207.367 16.3526C207.125 16.3526 206.898 16.4039 206.685 16.5066C206.48 16.6092 206.3 16.7742 206.146 17.0016C205.992 17.2216 205.871 17.5149 205.783 17.8816C205.695 18.2409 205.651 18.6772 205.651 19.1906C205.651 19.7039 205.695 20.1402 205.783 20.4996C205.871 20.8589 205.992 21.1522 206.146 21.3796C206.3 21.5996 206.48 21.7609 206.685 21.8636C206.89 21.9662 207.114 22.0176 207.356 22.0176Z" fill="white"/>
<path d="M203.214 23.1286H198V21.6766C198.667 21.1779 199.232 20.7379 199.694 20.3566C200.163 19.9752 200.541 19.6269 200.827 19.3116C201.113 18.9962 201.318 18.7029 201.443 18.4316C201.575 18.1529 201.641 17.8632 201.641 17.5626C201.641 17.1959 201.531 16.9099 201.311 16.7046C201.098 16.4919 200.794 16.3856 200.398 16.3856C200.002 16.3856 199.621 16.4699 199.254 16.6386C198.887 16.8072 198.543 17.0309 198.22 17.3096V15.9236C198.528 15.6889 198.869 15.5019 199.243 15.3626C199.617 15.2159 200.072 15.1426 200.607 15.1426C201.003 15.1426 201.362 15.1976 201.685 15.3076C202.008 15.4102 202.283 15.5642 202.51 15.7696C202.745 15.9749 202.924 16.2279 203.049 16.5286C203.181 16.8219 203.247 17.1556 203.247 17.5296C203.247 17.9109 203.17 18.2702 203.016 18.6076C202.862 18.9449 202.631 19.2822 202.323 19.6196C202.022 19.9569 201.645 20.3089 201.19 20.6756C200.743 21.0349 200.218 21.4309 199.617 21.8636H203.214V23.1286Z" fill="white"/>
<path d="M247.96 9.03892L250.27 5.41992H251.744V11.1289H250.237V7.52092L247.949 11.1289H246.453V5.41992H247.96V9.03892Z" fill="white"/>
<path d="M241.648 5.41992H245.509V6.61892H243.166V11.1289H241.648V5.41992Z" fill="white"/>
<path d="M237.734 11.2395C237.323 11.2395 236.942 11.1772 236.59 11.0525C236.245 10.9205 235.941 10.7299 235.677 10.4805C235.42 10.2239 235.218 9.91221 235.072 9.54555C234.925 9.17155 234.852 8.74621 234.852 8.26955C234.852 7.79288 234.925 7.37121 235.072 7.00455C235.218 6.63055 235.42 6.31888 235.677 6.06955C235.941 5.82021 236.245 5.63321 236.59 5.50855C236.942 5.37655 237.323 5.31055 237.734 5.31055C238.144 5.31055 238.526 5.37655 238.878 5.50855C239.237 5.63321 239.545 5.82021 239.802 6.06955C240.066 6.31888 240.271 6.63055 240.418 7.00455C240.572 7.37121 240.649 7.79288 240.649 8.26955C240.649 8.74621 240.572 9.17155 240.418 9.54555C240.271 9.91221 240.066 10.2239 239.802 10.4805C239.545 10.7299 239.237 10.9205 238.878 11.0525C238.526 11.1772 238.144 11.2395 237.734 11.2395ZM237.734 10.0185C238.13 10.0185 238.452 9.87555 238.702 9.58955C238.951 9.30355 239.076 8.86355 239.076 8.26955C239.076 7.68288 238.951 7.24655 238.702 6.96055C238.452 6.67455 238.13 6.53155 237.734 6.53155C237.36 6.53155 237.044 6.67455 236.788 6.96055C236.538 7.24655 236.414 7.68288 236.414 8.26955C236.414 8.86355 236.538 9.30355 236.788 9.58955C237.044 9.87555 237.36 10.0185 237.734 10.0185Z" fill="white"/>
<path d="M232.724 6.61892V11.1289H231.195V6.61892H229.523V5.41992H234.418V6.61892H232.724Z" fill="white"/>
<path d="M224.874 9.03892L227.184 5.41992H228.658V11.1289H227.151V7.52092L224.863 11.1289H223.367V5.41992H224.874V9.03892Z" fill="white"/>
<path d="M215.851 9.03892L218.161 5.41992H219.635V11.1289H218.128V7.52092L215.84 11.1289H214.344V5.41992H215.851V9.03892Z" fill="white"/>
<path d="M210.429 11.2395C210.018 11.2395 209.637 11.1772 209.285 11.0525C208.94 10.9205 208.636 10.7299 208.372 10.4805C208.115 10.2239 207.914 9.91221 207.767 9.54555C207.62 9.17155 207.547 8.74621 207.547 8.26955C207.547 7.79288 207.62 7.37121 207.767 7.00455C207.914 6.63055 208.115 6.31888 208.372 6.06955C208.636 5.82021 208.94 5.63321 209.285 5.50855C209.637 5.37655 210.018 5.31055 210.429 5.31055C210.84 5.31055 211.221 5.37655 211.573 5.50855C211.932 5.63321 212.24 5.82021 212.497 6.06955C212.761 6.31888 212.966 6.63055 213.113 7.00455C213.267 7.37121 213.344 7.79288 213.344 8.26955C213.344 8.74621 213.267 9.17155 213.113 9.54555C212.966 9.91221 212.761 10.2239 212.497 10.4805C212.24 10.7299 211.932 10.9205 211.573 11.0525C211.221 11.1772 210.84 11.2395 210.429 11.2395ZM210.429 10.0185C210.825 10.0185 211.148 9.87555 211.397 9.58955C211.646 9.30355 211.771 8.86355 211.771 8.26955C211.771 7.68288 211.646 7.24655 211.397 6.96055C211.148 6.67455 210.825 6.53155 210.429 6.53155C210.055 6.53155 209.74 6.67455 209.483 6.96055C209.234 7.24655 209.109 7.68288 209.109 8.26955C209.109 8.86355 209.234 9.30355 209.483 9.58955C209.74 9.87555 210.055 10.0185 210.429 10.0185Z" fill="white"/>
<path d="M204.851 5.57419L202.959 9.91919H201.562L199.725 5.50819V11.1292H198.328V3.24219H200.385L202.376 8.23619L204.543 3.24219H206.424V11.1292H204.851V5.57419Z" fill="white"/>
<defs>
<clipPath id="clip0_4323_36439">
<rect width="58.024" height="28.3673" fill="white"/>
</clipPath>
</defs>
</svg>
