<svg width="874" height="28" viewBox="0 0 874 28" fill="none" xmlns="http://www.w3.org/2000/svg">
<!-- Яндекс лого -->
<g transform="translate(0, 0)">
<circle cx="14" cy="14" r="14" fill="white"/>
<path d="M18.5 7.5C18.5 10.5 16.5 12.5 13.5 12.5H11.5V20.5H8.5V7.5H13.5C16.5 7.5 18.5 9.5 18.5 12C18.5 12.2 18.5 12.4 18.5 12.6C17.8 12.2 17 12 16 12C15 12 14.2 12.2 13.5 12.5V10.5H11.5V12.5H13.5C14.5 12.5 15.3 12.8 16 13.3C16.7 13.8 17 14.5 17 15.3C17 16.1 16.7 16.8 16 17.3C15.3 17.8 14.5 18 13.5 18H11.5V20.5H13.5C15 20.5 16.3 20.1 17.4 19.3C18.5 18.5 19.3 17.4 19.8 16H20.5V7.5H18.5Z" fill="#FC3F1D"/>
</g>

<!-- Маркет текст -->
<g transform="translate(33, 5)">
<path d="M0 12.353L8.718 0H15.357L16.713 5.565L23.439 0H30.021V12.353H23.584V3.038L17.608 12.353H11.171L9.930 2.952L5.196 12.353H0Z" fill="white"/>
<path d="M49.794 8.917C49.794 9.504 49.803 10.081 49.823 10.649C49.842 11.217 49.880 11.776 49.938 12.325H43.963C43.847 12.117 43.732 11.833 43.617 11.473C43.501 11.094 43.424 10.697 43.386 10.280C42.770 10.000 41.990 9.596 41.047 9.069C40.124 8.524 38.806 8.251 37.093 8.251C35.361 8.251 33.975 7.853 32.936 7.058C31.916 6.263 31.406 5.203 31.406 3.877C31.406 2.646 31.762 1.700 32.474 1.037C33.206 0.355 34.341 -0.118 35.880 -0.383C37.420 -0.667 39.392 -0.809 41.798 -0.809H43.299V-1.122C43.299 -1.727 43.039 -2.191 42.520 -2.513C42.000 -2.835 41.028 -2.996 39.604 -2.996C38.199 -2.996 36.891 -2.816 35.678 -2.456C34.485 -2.116 33.513 -1.775 32.763 -1.434V-5.240C33.610 -5.543 34.745 -5.846 36.169 -6.149C37.612 -6.471 39.258 -6.631 41.105 -6.631C42.972 -6.631 44.550 -6.461 45.839 -6.120C47.129 -5.798 48.110 -5.240 48.784 -4.445C49.457 -3.668 49.794 -2.589 49.794 -1.207V8.917Z" fill="white"/>
<!-- ... rest of Маркет letters -->
</g>

<!-- Мои итоги 2025 года текст -->
<g transform="translate(220, 8)">
<text x="0" y="15" font-family="YS Text" font-weight="700" font-size="11" fill="white" xml:space="preserve">Мои итоги&#10;2025 года</text>
</g>
</svg>

