<svg preserveAspectRatio="none" width="100%" height="100%" overflow="visible" style="display: block;" viewBox="0 0 126 22" fill="none" xmlns="http://www.w3.org/2000/svg">
<g id="x-height">
<path id="&#208;&#156;&#208;&#176;&#209;&#128;&#208;&#186;&#208;&#181;&#209;&#130;" d="M0 17.3533L8.71753 0H15.3567L16.7134 10.5653L23.4392 0H30.0206V17.3533H23.5835V8.03761L17.6082 17.3533H11.1711L9.9299 7.95241L5.19588 17.3533H0ZM49.7938 13.9167C49.7938 14.5037 49.8034 15.0812 49.8227 15.6492C49.8419 16.2172 49.8804 16.7758 49.9381 17.3249H43.9629C43.8474 17.1166 43.732 16.8326 43.6165 16.4728C43.501 16.0942 43.4241 15.6965 43.3856 15.28C42.7698 15.9995 41.9904 16.5959 41.0474 17.0693C40.1237 17.5237 38.8055 17.7509 37.0928 17.7509C35.3608 17.7509 33.9753 17.3533 32.9361 16.5581C31.9162 15.7628 31.4062 14.7025 31.4062 13.3771C31.4062 12.1464 31.7622 11.1996 32.4742 10.5369C33.2055 9.85531 34.3409 9.38195 35.8804 9.11687C37.4199 8.83285 39.3924 8.69085 41.7979 8.69085H43.299V8.37843C43.299 7.77253 43.0392 7.30864 42.5196 6.98676C42 6.66488 41.0282 6.50393 39.6041 6.50393C38.1993 6.50393 36.8907 6.68381 35.6784 7.04356C34.4852 7.38438 33.5134 7.7252 32.7629 8.06601V4.26022C33.6096 3.95727 34.745 3.65432 36.1691 3.35137C37.6124 3.02949 39.2577 2.86855 41.1052 2.86855C42.9718 2.86855 44.5498 3.03896 45.8392 3.37977C47.1285 3.70166 48.11 4.26022 48.7835 5.05546C49.457 5.83177 49.7938 6.91102 49.7938 8.29323V13.9167ZM51.7567 3.29457H57.732L58.0783 5.70869C58.8096 4.76198 59.6852 4.07088 60.7052 3.63539C61.7251 3.1999 62.899 2.98215 64.2268 2.98215C65.7278 2.98215 67.0749 3.24723 68.268 3.77739C69.4612 4.30755 70.4041 5.11226 71.0969 6.19152C71.7897 7.27077 72.1361 8.63404 72.1361 10.2813C72.1361 11.9286 71.7897 13.3013 71.0969 14.3995C70.4234 15.4788 69.4804 16.293 68.268 16.8421C67.0557 17.3912 65.6701 17.6657 64.1113 17.6657C62.9567 17.6657 61.8694 17.4669 60.8495 17.0693C59.8488 16.6527 58.9828 15.9995 58.2515 15.1096V21.0171H51.7567V3.29457ZM90.9567 10.2813C90.9567 8.88019 91.3416 7.63053 92.1113 6.53234C92.9003 5.43415 94.0165 4.57263 95.4598 3.9478C96.9223 3.30404 98.6447 2.98215 100.627 2.98215C102.686 2.98215 104.408 3.33244 105.794 4.03301C107.199 4.73358 108.18 5.72763 108.738 7.01516C109.315 8.30269 109.392 9.8269 108.969 11.5878H97.567C97.7979 12.402 98.3079 13.0173 99.0969 13.4339C99.9052 13.8315 101.098 14.0303 102.676 14.0303C103.773 14.0303 104.793 13.9356 105.736 13.7463C106.679 13.538 107.555 13.3013 108.363 13.0363V16.416C107.535 16.7947 106.612 17.0977 105.592 17.3249C104.591 17.5521 103.273 17.6657 101.637 17.6657C98.0385 17.6657 95.354 17.0125 93.5835 15.706C91.8323 14.3806 90.9567 12.5724 90.9567 10.2813ZM109.518 3.29457H126V6.92996H120.862V17.3249H114.367V6.92996H109.518V3.29457ZM73.3773 3.29457H79.8722V9.6565L86.0206 3.29457H91.6206L85.9052 9.14527L92.8041 17.3249H84.9526L79.8722 11.1334V17.3249H73.3773V3.29457ZM100.656 6.16312C99.7705 6.16312 99.0681 6.41873 98.5485 6.92996C98.0289 7.42225 97.6921 8.05655 97.5382 8.83285H103.254C103.234 8.05655 103.023 7.42225 102.619 6.92996C102.214 6.41873 101.56 6.16312 100.656 6.16312ZM65.4969 10.2813C65.4969 9.14527 65.1794 8.24589 64.5443 7.58319C63.9285 6.90155 63.0433 6.56074 61.8887 6.56074C60.8302 6.56074 59.945 6.88262 59.233 7.52639C58.521 8.15122 58.1649 9.06953 58.1649 10.2813C58.1649 11.4931 58.5113 12.4304 59.2041 13.0931C59.9162 13.7368 60.811 14.0587 61.8887 14.0587C63.0818 14.0587 63.9766 13.7179 64.5732 13.0363C65.189 12.3546 65.4969 11.4363 65.4969 10.2813ZM43.299 11.2754H41.8268C40.422 11.2754 39.4117 11.389 38.7959 11.6162C38.1993 11.8434 37.901 12.2789 37.901 12.9227C37.901 13.4718 38.0935 13.8788 38.4784 14.1439C38.8825 14.3901 39.3636 14.5131 39.9217 14.5131C40.7684 14.5131 41.4612 14.3617 42 14.0587C42.5581 13.7368 42.9911 13.3676 43.299 12.9511V11.2754Z" fill="var(--fill-0, white)"/>
</g>
</svg>
