<svg preserveAspectRatio="none" width="100%" height="100%" overflow="visible" style="display: block;" viewBox="0 0 28 28" fill="none" xmlns="http://www.w3.org/2000/svg">
<path id="Vector" fill-rule="evenodd" clip-rule="evenodd" d="M25.4822 21.4818C23.0028 25.2578 18.7303 27.751 13.8755 27.751C10.141 27.751 6.75115 26.2758 4.2569 23.8761L11.7488 12.3925L9.55062 21.5985L15.1287 22.2681L19.761 16.6016L18.412 22.2707L18.4217 22.2677L18.4123 22.2755L25.4822 21.4818ZM27.3432 17.2281C27.6096 16.1544 27.7511 15.0315 27.7511 13.8755C27.7511 6.21227 21.5388 0 13.8755 0C6.21231 0 0 6.21227 0 13.8755C0 15.4117 0.249632 16.8897 0.7106 18.271L10.9375 2.43035L17.691 6.33081L15.7743 14.4105L20.8347 8.13049L25.6006 10.8935L24.0035 17.858L27.3432 17.2281Z" fill="var(--fill-0, white)"/>
</svg>
